<svg width="58" height="59" viewBox="0 0 58 59" fill="none" xmlns="http://www.w3.org/2000/svg">
<g clip-path="url(#clip0)">
<path d="M48.4899 13.7303L50.5842 11.8059L49.9268 11.0906L47.8185 13.028C47.3996 13.4129 46.9313 13.47 46.4989 12.9994C46.0621 12.524 46.1585 12.0622 46.5773 11.6773L48.6857 9.73992L48.0284 9.02459L45.9341 10.949C45.1341 11.6842 45.0415 12.698 45.8588 13.5875C46.6718 14.4723 47.6899 14.4655 48.4899 13.7303Z" fill="#314BF5"/>
<path d="M49.0649 17.9491L49.5576 18.7546L53.4389 16.3802L52.9759 15.6234L50.4028 17.1975L51.9375 13.926L51.3952 13.0394L47.5139 15.4139L47.9769 16.1707L50.6851 14.5139L49.0649 17.9491Z" fill="#314BF5"/>
<path d="M50.9429 22.1424L51.7532 21.82L51.0167 19.9688L54.453 18.6016L54.0953 17.7026L49.8487 19.3921L50.9429 22.1424Z" fill="#314BF5"/>
<path d="M54.1778 26.3101C55.5178 26.0367 56.2977 24.8323 56.0331 23.5359C55.7699 22.2458 54.5816 21.4496 53.2416 21.7231C51.9017 21.9965 51.108 23.1972 51.3713 24.4873C51.6358 25.7837 52.8378 26.5836 54.1778 26.3101ZM53.4401 22.6953C54.2628 22.5274 55.0189 22.8925 55.1855 23.7089C55.3534 24.5316 54.8008 25.1637 53.9781 25.3316C53.1554 25.4995 52.3868 25.137 52.2189 24.3144C52.0523 23.4979 52.6174 22.8632 53.4401 22.6953Z" fill="#314BF5"/>
<path d="M53.7484 31.4985L53.765 30.4747C53.1119 30.3496 52.6622 29.8398 52.6727 29.1912C52.6854 28.4091 53.3172 27.8914 54.2137 27.906C55.104 27.9204 55.7122 28.4582 55.6995 29.2404C55.689 29.889 55.2293 30.3903 54.5725 30.4878L54.5559 31.5116C55.7285 31.3716 56.545 30.4435 56.5645 29.2417C56.5854 27.9572 55.5652 26.9357 54.2298 26.914C52.8881 26.8922 51.829 27.88 51.8081 29.1645C51.7886 30.3663 52.5682 31.3203 53.7484 31.4985Z" fill="#314BF5"/>
<path d="M51.2807 34.3779L51.034 35.587L53.7363 34.2429L55.5191 36.4504L55.7442 35.3473L54.1091 33.3386L56.0724 33.7393L56.2657 32.792L51.7908 31.8787L51.5974 32.8261L53.6479 33.2445L51.2807 34.3779Z" fill="#314BF5"/>
<path d="M49.2435 39.7721L48.7258 40.831L50.8373 40.5301C50.7489 41.1606 50.9793 41.7483 51.5746 42.0394C52.4331 42.4591 53.2076 42.0789 53.7085 41.0544L54.4976 39.4403L50.388 37.4312L49.9626 38.3012L51.4165 39.0119L51.1506 39.5557L49.2435 39.7721ZM53.0097 40.656C52.7438 41.1998 52.3806 41.3626 51.9971 41.1751C51.6193 40.9904 51.5247 40.6037 51.7905 40.06L52.1319 39.3617L53.3511 39.9577L53.0097 40.656Z" fill="#314BF5"/>
<path d="M47.3435 44.1277L48.5645 42.4226L49.4505 43.0571L48.3624 44.5767L49.0372 45.0599L50.1253 43.5403L50.9032 44.0973L49.7081 45.7663L50.388 46.2532L52.1438 43.8011L48.4452 41.1527L46.6636 43.6408L47.3435 44.1277Z" fill="#314BF5"/>
<path d="M44.1516 46.2218L43.4104 46.9466L47.8216 49.0196L48.5763 48.2815L46.6115 43.8163L45.9158 44.4966L46.3505 45.4413L45.0819 46.6819L44.1516 46.2218ZM46.7021 46.1738L47.479 47.878L45.8063 47.0498L46.7021 46.1738Z" fill="#314BF5"/>
<path d="M40.6859 48.7695L41.1825 49.4839L42.8147 48.3493L44.9209 51.3791L45.7135 50.8281L43.1108 47.0838L40.6859 48.7695Z" fill="#314BF5"/>
<path d="M36.3028 51.6622L38.2605 50.8833L38.6652 51.9006L36.9205 52.5948L37.2287 53.3696L38.9735 52.6754L39.3288 53.5685L37.4125 54.3309L37.7231 55.1116L40.5384 53.9915L38.8489 49.745L35.9922 50.8815L36.3028 51.6622Z" fill="#314BF5"/>
<path d="M32.4063 53.16C32.5505 53.8185 33.0519 54.0863 33.8687 54.0702L34.6668 54.0582C35.0034 54.0496 35.3102 54.1127 35.3782 54.4233C35.4462 54.7339 35.2424 55.052 34.7827 55.1526C34.3106 55.256 33.9181 55.0099 33.7851 54.5508L32.8283 54.7602C33.0945 55.6785 33.9554 56.102 34.9556 55.883C35.9186 55.6721 36.4954 54.9469 36.3213 54.1517C36.1595 53.4124 35.5574 53.1601 34.8516 53.1779L34.0873 53.1956C33.692 53.204 33.4392 53.0901 33.3766 52.8043C33.2977 52.444 33.5932 52.1579 34.0715 52.0532C34.6493 51.9267 35.0417 52.1728 35.1678 52.6595L36.1245 52.45C35.8494 51.5207 35.0155 51.0718 33.891 51.318C32.7728 51.5628 32.22 52.3088 32.4063 53.16Z" fill="#314BF5"/>
<path d="M29.6362 51.9178L29.8209 55.6127L28.3773 55.6849L28.4208 56.5562L32.2684 56.3638L32.2249 55.4925L30.7812 55.5647L30.5965 51.8698L29.6362 51.9178Z" fill="#314BF5"/>
<path d="M25.4363 51.6658L24.4051 51.5603L25.636 56.2762L26.6862 56.3836L28.859 52.0158L27.8911 51.9168L27.4434 52.8555L25.6783 52.675L25.4363 51.6658ZM27.1058 53.5945L26.2938 55.2823L25.8594 53.4671L27.1058 53.5945Z" fill="#314BF5"/>
<path d="M22.745 51.0499L21.8143 54.6257L20.4172 54.262L20.1977 55.1052L23.9212 56.0744L24.1407 55.2312L22.7436 54.8676L23.6744 51.2918L22.745 51.0499Z" fill="#314BF5"/>
<path d="M17.9379 50.0844L19.8635 50.9349L19.4215 51.9355L17.7054 51.1775L17.3688 51.9396L19.0849 52.6976L18.6969 53.576L16.8121 52.7435L16.4729 53.5114L19.242 54.7345L21.0869 50.5575L18.277 49.3165L17.9379 50.0844Z" fill="#314BF5"/>
<path d="M14.2822 48.3202L13.8293 48.9658L15.4172 50.0797L15.8701 49.4341L14.2822 48.3202Z" fill="#314BF5"/>
<path d="M9.67255 44.3904L7.60662 46.3148L8.26395 47.0205L10.3438 45.083C10.757 44.6982 11.2215 44.6383 11.654 45.1026C12.0907 45.5715 11.9981 46.0306 11.585 46.4155L9.5051 48.3529L10.1624 49.0585L12.2284 47.1341C13.0176 46.3989 13.1027 45.3919 12.2853 44.5144C11.4723 43.6416 10.4618 43.6552 9.67255 44.3904Z" fill="#314BF5"/>
<path d="M8.97356 40.1903L8.47422 39.385L4.59341 41.7912L5.06259 42.5479L7.63538 40.9527L6.11488 44.2451L6.66449 45.1315L10.5453 42.7253L10.0761 41.9686L7.3682 43.6476L8.97356 40.1903Z" fill="#314BF5"/>
<path d="M7.11729 36.0083L6.30701 36.3307L7.04352 38.1819L3.60721 39.549L3.96488 40.448L8.21147 38.7585L7.11729 36.0083Z" fill="#314BF5"/>
<path d="M3.84829 31.8605C2.50957 32.1387 1.7341 33.3456 2.00326 34.6407C2.27111 35.9297 3.46196 36.7215 4.80068 36.4432C6.1394 36.165 6.92862 34.9617 6.66076 33.6728C6.39161 32.3777 5.18702 31.5822 3.84829 31.8605ZM4.59882 35.4719C3.7769 35.6427 3.01959 35.2804 2.85007 34.4648C2.67927 33.6428 3.22954 33.0088 4.05145 32.838C4.87337 32.6672 5.64313 33.0269 5.81394 33.8488C5.98346 34.6645 5.42073 35.3011 4.59882 35.4719Z" fill="#314BF5"/>
<path d="M4.24157 26.6656L4.22496 27.6894C4.87806 27.8145 5.32774 28.3242 5.31721 28.9728C5.30451 29.755 4.67278 30.2726 3.77619 30.2581C2.88595 30.2436 2.27772 29.7058 2.29041 28.9237C2.30094 28.2751 2.76067 27.7737 3.41739 27.6763L3.43401 26.6525C2.2614 26.7925 1.44492 27.7206 1.42541 28.9224C1.40456 30.2069 2.42473 31.2284 3.76008 31.25C5.10179 31.2718 6.16095 30.2841 6.1818 28.9996C6.20131 27.7978 5.42173 26.8438 4.24157 26.6656Z" fill="#314BF5"/>
<path d="M6.67586 23.7756L6.91028 22.5665L4.2265 23.9345L2.42571 21.7488L2.21183 22.8519L3.8633 24.8405L1.90008 24.4599L1.71641 25.4073L6.19132 26.2748L6.37498 25.3275L4.32451 24.93L6.67586 23.7756Z" fill="#314BF5"/>
<path d="M8.67906 18.375L9.1865 17.3135L7.08148 17.6324C7.16418 17.0023 6.9291 16.4176 6.33238 16.1324C5.47172 15.7209 4.702 16.1072 4.21101 17.1342L3.43751 18.7523L7.55721 20.7217L7.97413 19.8496L6.51675 19.1529L6.77732 18.6078L8.67906 18.375ZM4.91203 17.5258C5.1726 16.9807 5.53377 16.815 5.9182 16.9988C6.29689 17.1798 6.39474 17.5649 6.13416 18.11L5.79953 18.81L4.57739 18.2258L4.91203 17.5258Z" fill="#314BF5"/>
<path d="M10.5176 13.9412L9.29667 15.6673L8.3997 15.0329L9.48784 13.4945L8.80469 13.0113L7.71655 14.5497L6.9291 13.9927L8.1242 12.3031L7.43584 11.8162L5.68006 14.2985L9.42437 16.9469L11.206 14.4281L10.5176 13.9412Z" fill="#314BF5"/>
<path d="M13.7246 11.8857L14.4609 11.1561L10.0361 9.11233L9.28625 9.85543L11.2807 14.3075L11.9718 13.6226L11.5309 12.6807L12.7912 11.4318L13.7246 11.8857ZM11.1745 11.9506L10.3862 10.2517L12.0644 11.0687L11.1745 11.9506Z" fill="#314BF5"/>
<path d="M17.173 9.30772L16.6726 8.59445L15.0431 9.73762L12.9211 6.71274L12.1297 7.26789L14.7521 11.006L17.173 9.30772Z" fill="#314BF5"/>
<path d="M21.5266 6.39496L19.5773 7.18965L19.1643 6.17674L20.9016 5.46848L20.5871 4.69701L18.8498 5.40527L18.4873 4.51602L20.3953 3.73814L20.0784 2.96078L17.2752 4.1036L18.9991 8.33194L21.8435 7.17232L21.5266 6.39496Z" fill="#314BF5"/>
<path d="M25.4222 4.8623C25.2736 4.20475 24.7705 3.94025 23.9539 3.96174L23.1558 3.97903C22.8193 3.98987 22.5121 3.92887 22.442 3.6187C22.3719 3.30854 22.5736 2.98914 23.0327 2.88543C23.5041 2.77893 23.8982 3.02243 24.0343 3.48067L24.9896 3.26485C24.7173 2.34837 23.8536 1.93062 22.8549 2.15624C21.8934 2.37346 21.3213 3.10252 21.5007 3.89655C21.6675 4.63474 22.2712 4.88302 22.9768 4.86054L23.741 4.83785C24.1363 4.82681 24.3898 4.93905 24.4543 5.2244C24.5356 5.58419 24.242 5.87218 23.7644 5.98009C23.1875 6.11042 22.7934 5.86692 22.6641 5.38106L21.7088 5.59688C21.99 6.52437 22.8269 6.96773 23.9498 6.71408C25.0663 6.46183 25.6142 5.71216 25.4222 4.8623Z" fill="#314BF5"/>
<path d="M28.2029 6.10221L28.0011 2.41276L29.4426 2.33394L29.395 1.46396L25.5532 1.67405L25.6008 2.54402L27.0423 2.4652L27.244 6.15464L28.2029 6.10221Z" fill="#314BF5"/>
<path d="M32.4158 6.29671L33.4524 6.40037L32.2047 1.66371L31.149 1.55814L28.9752 5.95265L29.9483 6.04996L30.396 5.10555L32.1703 5.28298L32.4158 6.29671ZM30.7337 4.36211L31.5458 2.66408L31.9865 4.48739L30.7337 4.36211Z" fill="#314BF5"/>
<path d="M35.0897 6.90751L35.9948 3.32514L37.3945 3.67878L37.6079 2.83406L33.8776 1.89152L33.6641 2.73624L35.0638 3.08989L34.1586 6.67227L35.0897 6.90751Z" fill="#314BF5"/>
<path d="M39.91 7.84233L37.9785 7.00531L38.4135 6.00164L40.1349 6.74763L40.4662 5.98321L38.7447 5.23722L39.1266 4.35609L41.0172 5.17541L41.351 4.40516L38.5734 3.20146L36.7578 7.39119L39.5762 8.61259L39.91 7.84233Z" fill="#314BF5"/>
<path d="M43.5778 9.58548L44.0264 8.9369L42.4311 7.83351L41.9825 8.48209L43.5778 9.58548Z" fill="#314BF5"/>
<path d="M44.638 25.0163C46.1249 27.65 47.2881 30.6996 46.2976 33.5571C44.4855 38.7844 39.3374 41.2211 32.8485 44.7991C30.309 46.1993 27.4245 47.166 24.6115 46.4612C17.6461 44.7162 12.29 38.9125 11.2026 31.7094C10.9339 29.9298 11.2883 28.1254 11.9375 26.4467C15.3314 17.6723 19.9212 11 29 11C37.5227 11 40.252 17.2474 44.638 25.0163Z" fill="#314BF5"/>
<path d="M33.512 30.632V23.512H31.08V30.68C31.08 32.104 30.392 33.064 28.792 33.064C27.176 33.064 26.488 32.104 26.488 30.68V23.512H24.056V30.632C24.056 33.352 25.768 35.24 28.792 35.24C31.8 35.24 33.512 33.352 33.512 30.632Z" fill="white"/>
</g>
<defs>
<clipPath id="clip0">
<rect width="58" height="58.0033" fill="white"/>
</clipPath>
</defs>
</svg>
