<svg width="52" height="13" viewBox="0 0 52 13" fill="none" xmlns="http://www.w3.org/2000/svg">
<path d="M9.512 7.632V0.511999H7.08V7.68C7.08 9.104 6.392 10.064 4.792 10.064C3.176 10.064 2.488 9.104 2.488 7.68V0.511999H0.056V7.632C0.056 10.352 1.768 12.24 4.792 12.24C7.8 12.24 9.512 10.352 9.512 7.632ZM13.5266 7.344C13.5266 5.968 14.2786 5.264 15.1586 5.264C16.1666 5.264 16.6626 5.968 16.6626 7.232V12H18.8706V6.48C18.8706 4.416 17.7026 3.296 15.9906 3.296C14.8546 3.296 13.9906 3.824 13.3506 4.672V3.456H11.3186V12H13.5266V7.344ZM22.9508 12V0.511999H20.7268V12H22.9508ZM33.0411 7.728C33.0411 5.232 31.1691 3.296 28.7051 3.296C26.2251 3.296 24.3691 5.232 24.3691 7.728C24.3691 10.208 26.2251 12.16 28.7051 12.16C31.1691 12.16 33.0411 10.208 33.0411 7.728ZM26.6571 7.728C26.6571 6.144 27.6011 5.28 28.7051 5.28C29.8091 5.28 30.7371 6.144 30.7371 7.728C30.7371 9.312 29.8091 10.192 28.7051 10.192C27.5851 10.192 26.6571 9.312 26.6571 7.728ZM42.1731 8.352H39.8371C39.7251 9.36 39.0691 10.192 38.0291 10.192C36.9091 10.192 36.1411 9.168 36.1411 7.728C36.1411 6.24 36.9091 5.28 38.0291 5.28C39.0851 5.28 39.7251 6.08 39.8371 7.104H42.1731C41.9171 4.832 40.2851 3.296 38.0131 3.296C35.6131 3.296 33.8691 5.168 33.8691 7.728C33.8691 10.256 35.6131 12.16 38.0131 12.16C40.2531 12.16 41.9171 10.624 42.1731 8.352ZM48.9298 12H51.7618L47.8098 7.552L51.3298 3.456H48.7698L45.6498 7.072V0.511999H43.4418V12H45.6498V8.032L48.9298 12Z" fill="#314BF5"/>
</svg>
